<?xml version="1.0" standalone="no"?>
<!DOCTYPE svg PUBLIC "-//W3C//DTD SVG 20010904//EN"
 "http://www.w3.org/TR/2001/REC-SVG-20010904/DTD/svg10.dtd">
<svg version="1.0" xmlns="http://www.w3.org/2000/svg"
 width="100.000000pt" height="90.000000pt" viewBox="0 0 100.000000 90.000000"
 preserveAspectRatio="xMidYMid meet">
<metadata>
Created by potrace 1.16, written by Peter Selinger 2001-2019
</metadata>
<g transform="translate(0.000000,90.000000) scale(0.100000,-0.100000)"
fill="#000000" stroke="none">
<path d="M0 450 l0 -450 500 0 500 0 0 450 0 450 -500 0 -500 0 0 -450z m543
347 c-77 -27 -91 -40 -33 -30 147 26 272 -12 317 -96 46 -87 21 -172 -64 -218
-22 -13 -80 -30 -129 -38 -48 -9 -107 -24 -130 -34 -70 -31 -131 -96 -174
-185 -44 -91 -49 -85 -21 27 46 178 120 260 277 306 87 26 103 41 80 76 -21
32 -42 42 -102 50 -66 9 -151 -8 -247 -50 -45 -19 -83 -33 -85 -31 -2 2 5 21
16 43 24 47 93 117 147 148 46 27 135 54 180 54 24 -1 17 -5 -32 -22z"/>
</g>
</svg>
